<?xml version="1.0" encoding="UTF-8"?>
<svg width="700pt" height="700pt" version="1.1" viewBox="0 0 700 700" xmlns="http://www.w3.org/2000/svg">
 <g>
  <path d="m192.5 253.75h245c4.832 0 8.75-3.918 8.75-8.75s-3.918-8.75-8.75-8.75h-245c-4.832 0-8.75 3.918-8.75 8.75s3.918 8.75 8.75 8.75z"/>
  <path d="m192.5 315h245c4.832 0 8.75-3.918 8.75-8.75s-3.918-8.75-8.75-8.75h-245c-4.832 0-8.75 3.918-8.75 8.75s3.918 8.75 8.75 8.75z"/>
  <path d="m315 358.75h-122.5c-4.832 0-8.75 3.918-8.75 8.75s3.918 8.75 8.75 8.75h122.5c4.832 0 8.75-3.918 8.75-8.75s-3.918-8.75-8.75-8.75z"/>
  <path d="m516.25 327.77v-134.4c-0.039062-7.0312-2.793-13.777-7.6836-18.832-4.8867-5.0508-11.539-8.0234-18.566-8.293h-349.12c-7.1797 0.046875-14.051 2.918-19.129 7.9961s-7.9492 11.949-7.9961 19.129v226.62c0.26953 7.0273 3.2422 13.68 8.293 18.566 5.0547 4.8906 11.801 7.6445 18.832 7.6836h25.375v61.25c0.019531 3.5312 2.1562 6.707 5.4258 8.0508 1.0938 0.24609 2.2305 0.24609 3.3242 0 2.3203 0.027344 4.5469-0.92578 6.125-2.625l67.551-67.375h149.1-0.003906c9.2266 32.848 35.18 58.336 68.188 66.969 33.012 8.6328 68.121-0.88672 92.246-25.012s33.645-59.238 25.012-92.246c-8.6328-33.008-34.121-58.961-66.969-68.188zm-271.25 100.98c-2.3203-0.027344-4.5469 0.92578-6.125 2.625l-55.125 54.949v-48.824c0-2.3203-0.92188-4.5469-2.5625-6.1875s-3.8672-2.5625-6.1875-2.5625h-34.125c-4.9922 0.019531-9.1719-3.7773-9.625-8.75v-226.62c0-5.3164 4.3086-9.625 9.625-9.625h349.12c5.3164 0 9.625 4.3086 9.625 9.625v130.73h-8.75c-25.605-0.1875-50.23 9.8164-68.449 27.809-18.219 17.988-28.535 42.484-28.676 68.09v8.75zm245 70c-18.172-0.039062-35.77-6.3438-49.832-17.852-14.059-11.512-23.719-27.52-27.344-45.324-1.0859-5.1172-1.6133-10.34-1.5742-15.574 0.046875-20.871 8.3594-40.875 23.117-55.633 14.758-14.758 34.762-23.07 55.633-23.117 5.293-0.050781 10.574 0.48047 15.75 1.5742 25.746 5.2305 47.191 22.953 57.176 47.258 9.9805 24.305 7.1836 51.984-7.457 73.801-14.641 21.816-39.195 34.895-65.469 34.867z"/>
  <path d="m525 411.25h-26.25v-26.25c0-4.832-3.918-8.75-8.75-8.75s-8.75 3.918-8.75 8.75v26.25h-26.25c-4.832 0-8.75 3.918-8.75 8.75s3.918 8.75 8.75 8.75h26.25v26.25c0 4.832 3.918 8.75 8.75 8.75s8.75-3.918 8.75-8.75v-26.25h26.25c4.832 0 8.75-3.918 8.75-8.75s-3.918-8.75-8.75-8.75z"/>
 </g>
</svg>
